<svg width="369" height="256" viewBox="0 0 369 256" fill="none" xmlns="http://www.w3.org/2000/svg">
<path opacity="0.4" d="M349.772 117.604C350.769 118.568 352.351 118.568 353.348 117.604C354.056 116.919 355.093 116.699 356.018 117.036C357.321 117.512 358.767 116.868 359.286 115.582C359.654 114.668 360.511 114.045 361.494 113.977C362.878 113.882 363.936 112.706 363.887 111.319C363.852 110.335 364.382 109.417 365.252 108.956C366.477 108.305 366.966 106.8 366.357 105.554C365.924 104.669 366.035 103.615 366.642 102.84C367.497 101.747 367.332 100.174 366.268 99.2828C365.513 98.6503 365.186 97.6423 365.425 96.6868C365.761 95.3411 364.97 93.9708 363.637 93.5895C362.69 93.3188 361.98 92.5312 361.81 91.5611C361.57 90.1948 360.29 89.2648 358.917 89.4589C357.942 89.5968 356.973 89.1657 356.423 88.3487C355.648 87.1981 354.101 86.8691 352.925 87.6051C352.09 88.1277 351.03 88.1277 350.195 87.6051C349.02 86.8691 347.472 87.1981 346.697 88.3487C346.147 89.1657 345.179 89.5968 344.204 89.4589C342.83 89.2648 341.55 90.1948 341.31 91.5611C341.14 92.5312 340.431 93.3188 339.484 93.5895C338.15 93.9708 337.359 95.3411 337.696 96.6868C337.935 97.6423 337.607 98.6503 336.852 99.2828C335.789 100.174 335.623 101.747 336.478 102.84C337.085 103.615 337.196 104.669 336.764 105.554C336.154 106.8 336.643 108.305 337.869 108.956C338.739 109.417 339.269 110.335 339.234 111.319C339.184 112.706 340.243 113.882 341.627 113.977C342.609 114.045 343.467 114.668 343.835 115.582C344.353 116.868 345.799 117.512 347.102 117.036C348.027 116.699 349.064 116.919 349.772 117.604Z" fill="#FE0002"/>
<path opacity="0.4" d="M15.6391 57.9373C16.6362 58.9017 18.2185 58.9017 19.2156 57.9373C19.9235 57.2525 20.9603 57.0322 21.8855 57.3698C23.1886 57.8452 24.6341 57.2017 25.1527 55.9151C25.5209 55.0016 26.3784 54.3786 27.3609 54.3107C28.7448 54.215 29.8036 53.0392 29.754 51.6529C29.7189 50.6687 30.2488 49.7507 31.1188 49.2891C32.3441 48.6388 32.8331 47.134 32.224 45.8877C31.7915 45.0028 31.9023 43.9487 32.5093 43.1731C33.3642 42.0807 33.1988 40.5071 32.1355 39.6162C31.3805 38.9838 31.053 37.9758 31.292 37.0203C31.6287 35.6746 30.8375 34.3043 29.5038 33.923C28.5568 33.6523 27.8476 32.8647 27.6774 31.8946C27.4376 30.5283 26.1575 29.5983 24.784 29.7924C23.8088 29.9303 22.8405 29.4992 22.2904 28.6822C21.5156 27.5316 19.968 27.2026 18.7921 27.9386C17.9573 28.4612 16.8974 28.4612 16.0626 27.9386C14.8868 27.2026 13.3391 27.5316 12.5643 28.6822C12.0142 29.4992 11.046 29.9303 10.0708 29.7924C8.69724 29.5983 7.41718 30.5283 7.17738 31.8946C7.00713 32.8647 6.29791 33.6523 5.35098 33.923C4.01721 34.3043 3.22609 35.6746 3.56275 37.0203C3.80177 37.9758 3.47425 38.9838 2.71929 39.6162C1.65592 40.5071 1.49053 42.0807 2.34545 43.1731C2.95241 43.9487 3.0632 45.0028 2.63076 45.8877C2.02166 47.134 2.5106 48.6388 3.73594 49.2891C4.6059 49.7507 5.13585 50.6687 5.1007 51.6529C5.05118 53.0392 6.10991 54.215 7.49381 54.3107C8.47634 54.3786 9.33382 55.0016 9.70203 55.9151C10.2207 57.2017 11.6661 57.8452 12.9693 57.3698C13.8945 57.0322 14.9312 57.2525 15.6391 57.9373Z" fill="#FE0002"/>
<path d="M171.675 49.4294C178.157 43.1607 188.441 43.1607 194.922 49.4294C199.524 53.88 206.263 55.3124 212.276 53.1181C220.747 50.0275 230.142 54.2106 233.514 62.5735C235.907 68.5109 241.481 72.5604 247.867 73.0019C256.862 73.6237 263.744 81.2667 263.422 90.2777C263.194 96.6753 266.638 102.642 272.293 105.643C280.258 109.869 283.436 119.651 279.477 127.752C276.666 133.503 277.386 140.355 281.331 145.396C286.888 152.497 285.813 162.726 278.901 168.516C273.994 172.627 271.865 179.179 273.419 185.389C275.607 194.137 270.465 203.043 261.795 205.522C255.64 207.281 251.03 212.401 249.924 218.707C248.365 227.588 240.045 233.633 231.117 232.371C224.778 231.475 218.484 234.277 214.909 239.587C209.873 247.066 199.813 249.205 192.17 244.42C186.744 241.024 179.854 241.024 174.428 244.42C166.785 249.205 156.725 247.066 151.689 239.587C148.114 234.277 141.82 231.475 135.481 232.371C126.553 233.633 118.233 227.588 116.674 218.707C115.567 212.401 110.957 207.281 104.802 205.522C96.1329 203.043 90.9906 194.137 93.1789 185.389C94.7325 179.179 92.6036 172.627 87.6964 168.516C80.7845 162.726 79.7095 152.497 85.2664 145.396C89.2117 140.355 89.9318 133.503 87.1209 127.752C83.1618 119.651 86.3399 109.869 94.3046 105.643C99.9593 102.642 103.404 96.6753 103.176 90.2777C102.854 81.2667 109.735 73.6237 118.731 73.0019C125.117 72.5604 130.691 68.5109 133.084 62.5735C136.455 54.2106 145.851 50.0275 154.321 53.1181C160.335 55.3124 167.074 53.88 171.675 49.4294Z" fill="url(#paint0_linear_1113_2801)"/>
<path d="M133.887 145.463L161.681 178.508C162.529 179.517 164.035 179.647 165.043 178.798L234.251 120.588" stroke="white" stroke-width="9.54667"/>
<path opacity="0.4" d="M222.979 15.8419C223.478 16.3241 224.269 16.3241 224.767 15.8419C225.121 15.4995 225.64 15.3893 226.102 15.5581C226.754 15.7959 227.477 15.4741 227.736 14.8308C227.92 14.374 228.349 14.0625 228.84 14.0286C229.532 13.9808 230.061 13.3928 230.037 12.6997C230.019 12.2076 230.284 11.7486 230.719 11.5178C231.332 11.1926 231.576 10.4402 231.272 9.81706C231.055 9.37464 231.111 8.84759 231.414 8.45978C231.842 7.91356 231.759 7.12677 231.227 6.68135C230.85 6.36512 230.686 5.86111 230.806 5.38339C230.974 4.71053 230.578 4.0254 229.912 3.83475C229.438 3.69939 229.083 3.30556 228.998 2.82053C228.878 2.13738 228.238 1.67237 227.552 1.76944C227.064 1.83836 226.58 1.62281 226.305 1.21434C225.917 0.639017 225.144 0.474533 224.556 0.842552C224.138 1.10384 223.608 1.10384 223.191 0.842552C222.603 0.474533 221.829 0.639017 221.442 1.21434C221.167 1.62281 220.683 1.83836 220.195 1.76944C219.508 1.67237 218.868 2.13738 218.748 2.82053C218.663 3.30556 218.309 3.69939 217.835 3.83475C217.168 4.0254 216.773 4.71053 216.941 5.38339C217.061 5.86111 216.897 6.36512 216.519 6.68135C215.988 7.12677 215.905 7.91356 216.332 8.45978C216.636 8.84758 216.691 9.37464 216.475 9.81706C216.17 10.4402 216.415 11.1926 217.028 11.5178C217.463 11.7486 217.728 12.2076 217.71 12.6997C217.685 13.3928 218.215 13.9808 218.907 14.0286C219.398 14.0625 219.827 14.374 220.011 14.8308C220.27 15.4741 220.993 15.7959 221.644 15.5581C222.107 15.3893 222.625 15.4995 222.979 15.8419Z" fill="#FE0002"/>
<path opacity="0.4" d="M53.0161 242.081C53.7995 242.839 55.0427 242.839 55.8261 242.081C56.3824 241.543 57.1969 241.37 57.9239 241.635C58.9478 242.009 60.0835 241.503 60.491 240.492C60.7803 239.774 61.4541 239.285 62.226 239.232C63.3134 239.156 64.1453 238.232 64.1063 237.143C64.0787 236.37 64.4951 235.649 65.1787 235.286C66.1414 234.775 66.5256 233.593 66.047 232.613C65.7072 231.918 65.7943 231.09 66.2712 230.481C66.9429 229.622 66.813 228.386 65.9775 227.686C65.3843 227.189 65.1269 226.397 65.3147 225.646C65.5793 224.589 64.9577 223.512 63.9097 223.213C63.1657 223 62.6084 222.381 62.4747 221.619C62.2863 220.545 61.2805 219.815 60.2013 219.967C59.4351 220.075 58.6743 219.737 58.2421 219.095C57.6333 218.191 56.4173 217.932 55.4934 218.511C54.8375 218.921 54.0047 218.921 53.3488 218.511C52.4249 217.932 51.2089 218.191 50.6001 219.095C50.1679 219.737 49.4071 220.075 48.6409 219.967C47.5617 219.815 46.5559 220.545 46.3675 221.619C46.2338 222.381 45.6765 223 44.9325 223.213C43.8845 223.512 43.263 224.589 43.5275 225.646C43.7153 226.397 43.4579 227.189 42.8647 227.686C42.0292 228.386 41.8993 229.622 42.571 230.481C43.0479 231.09 43.135 231.918 42.7952 232.613C42.3166 233.593 42.7008 234.775 43.6635 235.286C44.3471 235.649 44.7635 236.37 44.7359 237.143C44.697 238.232 45.5288 239.156 46.6162 239.232C47.3881 239.285 48.0619 239.774 48.3512 240.492C48.7587 241.503 49.8944 242.009 50.9183 241.635C51.6453 241.37 52.4599 241.543 53.0161 242.081Z" fill="#FE0002"/>
<path opacity="0.4" d="M41.5935 135.175C42.092 135.658 42.8832 135.658 43.3817 135.175C43.7357 134.833 44.2541 134.723 44.7167 134.892C45.3682 135.129 46.091 134.808 46.3503 134.164C46.5344 133.708 46.9631 133.396 47.4544 133.362C48.1463 133.314 48.6757 132.726 48.6509 132.033C48.6334 131.541 48.8983 131.082 49.3333 130.851C49.946 130.526 50.1905 129.774 49.8859 129.151C49.6697 128.708 49.7251 128.181 50.0286 127.793C50.456 127.247 50.3733 126.46 49.8417 126.015C49.4642 125.699 49.3004 125.195 49.4199 124.717C49.5883 124.044 49.1927 123.359 48.5258 123.168C48.0523 123.033 47.6977 122.639 47.6126 122.154C47.4927 121.471 46.8527 121.006 46.1659 121.103C45.6783 121.172 45.1942 120.956 44.9191 120.548C44.5317 119.973 43.7579 119.808 43.17 120.176C42.7526 120.437 42.2226 120.437 41.8052 120.176C41.2173 119.808 40.4435 119.973 40.0561 120.548C39.781 120.956 39.2969 121.172 38.8093 121.103C38.1225 121.006 37.4825 121.471 37.3626 122.154C37.2775 122.639 36.9229 123.033 36.4494 123.168C35.7825 123.359 35.387 124.044 35.5553 124.717C35.6748 125.195 35.511 125.699 35.1336 126.015C34.6019 126.46 34.5192 127.247 34.9466 127.793C35.2501 128.181 35.3055 128.708 35.0893 129.151C34.7848 129.774 35.0292 130.526 35.6419 130.851C36.0769 131.082 36.3419 131.541 36.3243 132.033C36.2995 132.726 36.8289 133.314 37.5208 133.362C38.0121 133.396 38.4408 133.708 38.6249 134.164C38.8843 134.808 39.607 135.129 40.2586 134.892C40.7212 134.723 41.2395 134.833 41.5935 135.175Z" fill="#FE0002"/>
<defs>
<linearGradient id="paint0_linear_1113_2801" x1="183.299" y1="38.1869" x2="183.299" y2="255.374" gradientUnits="userSpaceOnUse">
<stop stop-color="#FE0002"/>
<stop offset="1" stop-color="#6E66ED"/>
</linearGradient>
</defs>
</svg>
